<svg xmlns="http://www.w3.org/2000/svg" xmlns:svg="http://www.w3.org/2000/svg" id="svg2" width="16" height="16" version="1.1"><metadata id="metadata7"/><g id="layer1" transform="translate(0,-1036.3622)"><rect style="opacity:1;fill:#fff;fill-opacity:1;stroke:none" id="rect3116" width="16" height="16" x="0" y="0" rx="2" ry="2" transform="translate(0,1036.3622)"/><rect style="fill:#000;fill-opacity:1;stroke:none" id="rect3886" width="14" height="14" x="1" y="1" rx="1" ry="1" transform="translate(0,1036.3622)"/><rect style="fill:#fff;fill-opacity:1;stroke:none" id="rect3888" width="12" height="12" x="2" y="2" rx="0" ry="0" transform="translate(0,1036.3622)"/><path style="fill:#000;fill-opacity:1;stroke:none" id="path4124" d="M 3,13 3,12 5.5192815,9.5 3,7 3,6 4,6 7.5192815,9.5 4,13 z" transform="translate(0,1036.3622)"/><rect style="fill:#000;fill-opacity:1;stroke:none" id="rect4126" width="5" height="1" x="8" y="12" transform="translate(0,1036.3622)"/><rect style="fill:#000;fill-opacity:1;stroke:none" id="rect4128" width="12" height="1" x="2" y="4" transform="translate(0,1036.3622)"/><rect style="fill:#000;fill-opacity:1;stroke:none" id="rect4130" width="1" height="2" x="5" y="2" transform="translate(0,1036.3622)"/><rect style="fill:#000;fill-opacity:1;stroke:none" id="rect4132" width="1" height="2" x="10" y="2" transform="translate(0,1036.3622)"/><path style="fill:#000;stroke:none;stroke-width:1px;stroke-linecap:butt;stroke-linejoin:miter;stroke-opacity:1;fill-opacity:1" id="path4134" d="m 6,4 4,-2 0,2 z" transform="translate(0,1036.3622)"/><rect style="fill:#000;fill-opacity:1;stroke:none" id="rect4136" width="3" height="2" x="2" y="2" rx="0" ry="0" transform="translate(0,1036.3622)"/></g></svg>