<svg xmlns="http://www.w3.org/2000/svg" xmlns:svg="http://www.w3.org/2000/svg" id="svg2" width="16" height="16" version="1.1"><defs id="defs4"><clipPath id="clipPath3776" clipPathUnits="userSpaceOnUse"><rect style="fill:#fff;fill-opacity:1;stroke:none" id="rect3778" width="4.76" height="3.332" x="-7.844" y="1042.356"/></clipPath></defs><metadata id="metadata7"/><g id="layer1" transform="translate(0,-1036.3622)"><rect style="opacity:1;fill:#fff;fill-opacity:1;stroke:none" id="rect3116" width="16" height="16" x="0" y="0" rx="2" ry="2" transform="translate(0,1036.3622)"/><rect style="fill:#000;fill-opacity:1;stroke:none" id="rect3886" width="14" height="14" x="1" y="1" rx="1" ry="1" transform="translate(0,1036.3622)"/><rect style="fill:#fff;fill-opacity:1;stroke:none" id="rect3888" width="12" height="12" x="2" y="2" rx="0" ry="0" transform="translate(0,1036.3622)"/><rect style="fill:#000;fill-opacity:1;stroke:none" id="rect4128" width="12" height="1" x="2" y="4" transform="translate(0,1036.3622)"/><rect style="fill:#000;fill-opacity:1;stroke:none" id="rect4130" width="1" height="2" x="5" y="2" transform="translate(0,1036.3622)"/><rect style="fill:#000;fill-opacity:1;stroke:none" id="rect4132" width="1" height="2" x="10" y="2" transform="translate(0,1036.3622)"/><path style="fill:#000;stroke:none;stroke-width:1px;stroke-linecap:butt;stroke-linejoin:miter;stroke-opacity:1;fill-opacity:1" id="path4134" d="m 6,4 4,-2 0,2 z" transform="translate(0,1036.3622)"/><rect style="fill:#000;fill-opacity:1;stroke:none" id="rect4136" width="3" height="2" x="2" y="2" rx="0" ry="0" transform="translate(0,1036.3622)"/><g id="g3769" clip-path="url(#clipPath3776)" transform="matrix(2.1008118,0,0,2.1008118,19.478635,-1147.4323)"><path id="path2995" d="M -6.9999999,2 -7.0357723,5.2838281 -4.8786796,2.8786797 -7.2259916,5.175402 -4,5.0000001 -7.2838281,4.9642277 -4.8786797,7.1213204 -7.175402,4.7740084 -7.0000001,8 -6.9642277,4.7161719 -9.1213204,7.1213203 -6.7740084,4.824598 -10,4.9999999 l 3.2838281,0.035772 -2.4051484,-2.1570927 2.2967223,2.347312 z" transform="translate(2.5938305,1040.3821)" style="fill:#000;fill-opacity:1;stroke:#000;stroke-width:1.10599995;stroke-linecap:butt;stroke-linejoin:miter;stroke-miterlimit:4;stroke-opacity:1;stroke-dasharray:none"/><path id="path3765" d="m -4.7729706,4.6862917 c 0,0.6712136 -0.5441261,1.2153398 -1.2153397,1.2153398 -0.6712137,0 -1.2153398,-0.5441262 -1.2153398,-1.2153398 0,-0.6712136 0.5441261,-1.2153398 1.2153398,-1.2153398 0.6712136,0 1.2153397,0.5441262 1.2153397,1.2153398 z" transform="matrix(1.9710551,0,0,1.9710551,7.39712,1036.1451)" style="fill:#000;fill-opacity:1;stroke:none"/><path style="fill:#fff;fill-opacity:1;stroke:none" id="path3767" d="m -4.7729706,4.6862917 c 0,0.6712136 -0.5441261,1.2153398 -1.2153397,1.2153398 -0.6712137,0 -1.2153398,-0.5441262 -1.2153398,-1.2153398 0,-0.6712136 0.5441261,-1.2153398 1.2153398,-1.2153398 0.6712136,0 1.2153397,0.5441262 1.2153397,1.2153398 z" transform="matrix(1.1310044,0,0,1.1310044,2.3666358,1040.0819)"/></g></g></svg>