<svg xmlns="http://www.w3.org/2000/svg" xmlns:svg="http://www.w3.org/2000/svg" id="svg2" width="16" height="16" version="1.1"><defs id="defs4"><clipPath id="clipPath3765" clipPathUnits="userSpaceOnUse"><rect style="fill:#000;fill-opacity:1;stroke:#fff;stroke-width:0;stroke-linecap:butt;stroke-linejoin:miter;stroke-miterlimit:4;stroke-opacity:1;stroke-dasharray:none" id="rect3767" width="4.146" height="3.615" x="18.092" y="7.231"/></clipPath></defs><metadata id="metadata7"/><g id="layer1" transform="translate(0,-1036.3622)"><rect style="opacity:1;fill:#fff;fill-opacity:1;stroke:none" id="rect3116" width="16" height="16" x="0" y="0" rx="2" ry="2" transform="translate(0,1036.3622)"/><rect style="fill:#000;fill-opacity:1;stroke:none" id="rect3886" width="14" height="14" x="1" y="1" rx="1" ry="1" transform="translate(0,1036.3622)"/><rect style="fill:#fff;fill-opacity:1;stroke:none" id="rect3888" width="12" height="12" x="2" y="2" rx="0" ry="0" transform="translate(0,1036.3622)"/><rect style="fill:#000;fill-opacity:1;stroke:none" id="rect4128" width="12" height="1" x="2" y="4" transform="translate(0,1036.3622)"/><rect style="fill:#000;fill-opacity:1;stroke:none" id="rect4130" width="1" height="2" x="5" y="2" transform="translate(0,1036.3622)"/><rect style="fill:#000;fill-opacity:1;stroke:none" id="rect4132" width="1" height="2" x="10" y="2" transform="translate(0,1036.3622)"/><path style="fill:#000;stroke:none;stroke-width:1px;stroke-linecap:butt;stroke-linejoin:miter;stroke-opacity:1;fill-opacity:1" id="path4134" d="m 6,4 4,-2 0,2 z" transform="translate(0,1036.3622)"/><rect style="fill:#000;fill-opacity:1;stroke:none" id="rect4136" width="3" height="2" x="2" y="2" rx="0" ry="0" transform="translate(0,1036.3622)"/><path style="fill:#000;fill-opacity:1;stroke:#fff;stroke-width:.54192561;stroke-linecap:butt;stroke-linejoin:miter;stroke-miterlimit:4;stroke-opacity:1;stroke-dasharray:none" id="path2993" d="M 21.625,11.375 19.997027,10.174116 18.362275,11.365755 19.001313,9.4463675 17.362831,8.2598628 19.38575,8.2745 20.007864,6.3495607 20.61906,8.2779945 22.64203,8.2748214 20.99685,9.4520219 z" clip-path="url(#clipPath3765)" transform="matrix(2.8920513,0,0,3.0380779,-50.31209,1019.4103)"/></g></svg>