<svg xmlns="http://www.w3.org/2000/svg" xmlns:svg="http://www.w3.org/2000/svg" id="svg2" width="16" height="16" version="1.1"><metadata id="metadata7"/><g id="layer1" transform="translate(0,-1036.3622)"><path style="fill:#fff;stroke:none;stroke-width:1px;stroke-linecap:butt;stroke-linejoin:miter;stroke-opacity:1;fill-opacity:1" id="path3022" d="m 1,1 15,0 0,9 -6,0 0,6 -9,0 z" transform="translate(0,1036.3622)"/><rect style="fill:#000;fill-opacity:1;stroke:none" id="rect3797" width="7" height="7" x="2" y="2" transform="translate(0,1036.3622)"/><rect style="fill:#000;fill-opacity:1;stroke:none" id="rect3797-1" width="7" height="7" x="8" y="1038.362"/><rect style="fill:#000;fill-opacity:1;stroke:none" id="rect3797-5" width="7" height="7" x="2" y="1044.362"/><path style="fill:#fff;stroke:none;stroke-width:1px;stroke-linecap:butt;stroke-linejoin:miter;stroke-opacity:1;fill-opacity:1" id="path3851" d="M 9,3 14,3 9,8 z" transform="translate(0,1036.3622)"/><path style="fill:#fff;fill-opacity:1;stroke:none" id="path3855" d="m 9,1046.3622 7,0 0,3 -2,2 -3,0 -2,-2 z"/><path style="fill:#000;fill-opacity:1;stroke:none" id="path3853" d="m 10,1047.3622 0,1 2,2 1,0 2,-2 0,-1 z"/><path style="fill:#fff;fill-opacity:1;stroke:none" id="path3851-5" d="m 3,1045.3622 5,0 -5,5 z"/></g></svg>