<svg xmlns="http://www.w3.org/2000/svg" xmlns:svg="http://www.w3.org/2000/svg" xmlns:xlink="http://www.w3.org/1999/xlink" id="svg1306" width="24" height="24" version="1.0"><defs id="defs1308"><linearGradient id="linearGradient4254-3"><stop style="stop-color:#888a85;stop-opacity:1" id="stop4256-8" offset="0"/><stop style="stop-color:#babdb6;stop-opacity:1" id="stop4258-8" offset="1"/></linearGradient><linearGradient id="linearGradient5176-5"><stop id="stop5178-9" offset="0" style="stop-color:#a2a59c;stop-opacity:1"/><stop id="stop5180-75" offset="1" style="stop-color:#535750;stop-opacity:1"/></linearGradient><linearGradient id="linearGradient2667-4"><stop id="stop2669-1" offset="0" style="stop-color:#fff;stop-opacity:1"/><stop id="stop2671-8" offset="1" style="stop-color:#fcfcff;stop-opacity:0"/></linearGradient><linearGradient id="linearGradient2238-8"><stop style="stop-color:#fff;stop-opacity:1" id="stop2240-5" offset="0"/><stop style="stop-color:#fff;stop-opacity:0" id="stop2242-7" offset="1"/></linearGradient><linearGradient id="linearGradient2206-2"><stop style="stop-color:#777973;stop-opacity:1" id="stop2208-1" offset="0"/><stop style="stop-color:#cbccca;stop-opacity:1" id="stop2210-7" offset="1"/></linearGradient><linearGradient id="linearGradient2198-5"><stop style="stop-color:red;stop-opacity:1" id="stop2200-9" offset="0"/><stop style="stop-color:#5a0000;stop-opacity:1" id="stop2202-6" offset="1"/></linearGradient><radialGradient id="radialGradient3202" cx="17.665" cy="18.333" r="1.002" fx="17.665" fy="18.333" gradientTransform="matrix(1.892125,0,0,1.403531,-15.77516,-7.78649)" gradientUnits="userSpaceOnUse" xlink:href="#linearGradient5176-5"/><linearGradient id="linearGradient3208" x1="11.492" x2="17.199" y1="1.654" y2="26.729" gradientTransform="matrix(0.550191,0,0,0.408633,-0.19099,0.58756)" gradientUnits="userSpaceOnUse" xlink:href="#linearGradient2667-4"/><linearGradient id="linearGradient3212" x1="17.414" x2="54.694" y1="10.734" y2="60.657" gradientTransform="matrix(0.423111,0,0,0.436821,0.85704,-0.07358)" gradientUnits="userSpaceOnUse" xlink:href="#linearGradient2238-8"/><linearGradient id="linearGradient3215" x1="23.119" x2="22.441" y1="9.583" y2="34.226" gradientTransform="matrix(0.435618,0,0,0.466284,0.53171,-1.05625)" gradientUnits="userSpaceOnUse" xlink:href="#linearGradient2198-5"/><linearGradient id="linearGradient3217" x1="25.669" x2="28.364" y1="2.347" y2="30.997" gradientTransform="matrix(0.457397,0,0,0.478008,0.00909,-1.1456)" gradientUnits="userSpaceOnUse" xlink:href="#linearGradient4254-3"/><linearGradient id="linearGradient3220" x1="28.88" x2="24.842" y1="26.553" y2="14.158" gradientTransform="matrix(0.446086,0,0,0.462541,0.29395,-1.13595)" gradientUnits="userSpaceOnUse" xlink:href="#linearGradient2206-2"/><linearGradient id="linearGradient3222" x1="-.62" x2="16.682" y1="-8.115" y2="26.823" gradientTransform="matrix(0.446086,0,0,0.462541,0.29395,-1.13595)" gradientUnits="userSpaceOnUse" xlink:href="#linearGradient5176-5"/><linearGradient id="linearGradient2868" x1="28.88" x2="24.842" y1="26.553" y2="14.158" gradientTransform="matrix(0.446086,0,0,0.462541,0.29395,-1.13595)" gradientUnits="userSpaceOnUse" xlink:href="#linearGradient2206-2"/><linearGradient id="linearGradient2870" x1="-.62" x2="16.682" y1="-8.115" y2="26.823" gradientTransform="matrix(0.446086,0,0,0.462541,0.29395,-1.13595)" gradientUnits="userSpaceOnUse" xlink:href="#linearGradient5176-5"/><linearGradient id="linearGradient2872" x1="23.119" x2="22.441" y1="9.583" y2="34.226" gradientTransform="matrix(0.435618,0,0,0.466284,0.53171,-1.05625)" gradientUnits="userSpaceOnUse" xlink:href="#linearGradient2198-5"/><linearGradient id="linearGradient2874" x1="25.669" x2="28.364" y1="2.347" y2="30.997" gradientTransform="matrix(0.457397,0,0,0.478008,0.00909,-1.1456)" gradientUnits="userSpaceOnUse" xlink:href="#linearGradient4254-3"/><linearGradient id="linearGradient2876" x1="17.414" x2="54.694" y1="10.734" y2="60.657" gradientTransform="matrix(0.423111,0,0,0.436821,0.85704,-0.07358)" gradientUnits="userSpaceOnUse" xlink:href="#linearGradient2238-8"/><linearGradient id="linearGradient2878" x1="11.492" x2="17.199" y1="1.654" y2="26.729" gradientTransform="matrix(0.550191,0,0,0.408633,-0.19099,0.58756)" gradientUnits="userSpaceOnUse" xlink:href="#linearGradient2667-4"/><radialGradient id="radialGradient2880" cx="17.665" cy="18.333" r="1.002" fx="17.665" fy="18.333" gradientTransform="matrix(1.892125,0,0,1.403531,-15.77516,-7.78649)" gradientUnits="userSpaceOnUse" xlink:href="#linearGradient5176-5"/></defs><metadata id="metadata1311"/><g id="layer1"><g id="g2852" transform="translate(0.9824726,0.99960054)"><rect id="rect1316-89" width="20.965" height="18.941" x=".518" y=".5" rx="2.261" ry="2.356" style="fill:url(#linearGradient2868);fill-opacity:1;fill-rule:evenodd;stroke:url(#linearGradient2870);stroke-width:.9999994;stroke-linecap:round;stroke-linejoin:round;stroke-miterlimit:4;stroke-opacity:1;stroke-dasharray:none;stroke-dashoffset:0"/><rect id="rect1314-6" width="17.005" height="14.014" x="2.481" y="2.434" rx=".754" ry=".794" style="fill:url(#linearGradient2872);fill-opacity:1;fill-rule:evenodd;stroke:url(#linearGradient2874);stroke-width:.995;stroke-linecap:round;stroke-linejoin:round;stroke-miterlimit:4;stroke-opacity:1;stroke-dasharray:none;stroke-dashoffset:0"/><g id="g3282"><path style="font-size:18.58501053px;font-style:normal;font-variant:normal;font-weight:700;font-stretch:normal;text-align:start;line-height:125%;writing-mode:lr-tb;text-anchor:start;fill:#fff;fill-opacity:1;stroke:none;font-family:Bitstream Vera Sans Mono" id="text1340-3" d="m 4.3607929,11.516232 0,-0.530565 1.5094303,0.754715 0,0.322384 -1.5094303,0.809689 0,-0.528988 1.1320727,-0.421704 -1.1320727,-0.405531 z m 3.0188605,1.733581 0,0.377357 -1.8867878,0 0,-0.377357"/><path style="font-size:18.58501053px;font-style:normal;font-variant:normal;font-weight:700;font-stretch:normal;text-align:start;line-height:125%;writing-mode:lr-tb;text-anchor:start;fill:#fff;fill-opacity:1;stroke:none;font-family:Bitstream Vera Sans Mono" id="text1340-3-7" d="m 4.3607929,4.9305208 0,-0.530565 1.5094303,0.754715 0,0.322384 -1.5094303,0.809689 0,-0.528988 1.1320727,-0.421704 -1.1320727,-0.405531 z m 3.0188605,1.733581 0,0.377357 -1.8867878,0 0,-0.377357"/><path style="font-size:18.58501053px;font-style:normal;font-variant:normal;font-weight:700;font-stretch:normal;text-align:start;line-height:125%;writing-mode:lr-tb;text-anchor:start;fill:#fff;fill-opacity:1;stroke:none;font-family:Bitstream Vera Sans Mono" id="text1340-3-9" d="m 12.100816,4.9305208 0,-0.530565 1.50943,0.754715 0,0.322384 -1.50943,0.809689 0,-0.528988 1.132072,-0.421704 -1.132072,-0.405531 z m 3.01886,1.733581 0,0.377357 -1.886788,0 0,-0.377357"/><path style="font-size:18.58501053px;font-style:normal;font-variant:normal;font-weight:700;font-stretch:normal;text-align:start;line-height:125%;writing-mode:lr-tb;text-anchor:start;fill:#fff;fill-opacity:1;stroke:none;font-family:Bitstream Vera Sans Mono" id="text1340-3-5" d="m 12.100816,11.516232 0,-0.530565 1.50943,0.754715 0,0.322384 -1.50943,0.809689 0,-0.528988 1.132072,-0.421704 -1.132072,-0.405531 z m 3.01886,1.733581 0,0.377357 -1.886788,0 0,-0.377357"/></g><rect id="rect2232-4" width="19.057" height="17.052" x="1.484" y="1.445" rx="1.682" ry="1.747" style="opacity:.76373626;fill:none;stroke:url(#linearGradient2876);stroke-width:.9999994;stroke-linecap:round;stroke-linejoin:round;stroke-miterlimit:4;stroke-opacity:1;stroke-dasharray:none;stroke-dashoffset:0"/><path id="path2443-3" d="m 3.68443,2.94496 c -0.23291,0 -0.7005,0.0867 -0.7005,0.46788 l 0.0525,7.53218 C 10.90191,10.50568 9.32314,7.17992 18.98389,5.51397 L 18.95599,3.53388 C 18.92119,3.02079 18.71595,2.97207 18.23934,2.97509 L 3.68441,2.94499 z" style="opacity:.53142856;fill:url(#linearGradient2878);fill-opacity:1;fill-rule:evenodd;stroke:none"/><rect id="rect1340-3" width="14.995" height="11.995" x="3.486" y="3.448" rx=".052" ry=".054" style="opacity:.71428576;fill:none;stroke:#000;stroke-width:.99999988;stroke-linecap:round;stroke-linejoin:round;stroke-miterlimit:4;stroke-opacity:1;stroke-dasharray:none;stroke-dashoffset:0"/><rect id="rect6458-8" width="1" height="1" x="13.984" y="16.945" rx=".28" ry=".28" style="fill:red;fill-opacity:1;fill-rule:evenodd;stroke:none"/><path id="path2300-60" d="m 28.875,38.75 c 0,0.3105 -0.252,0.5625 -0.5625,0.5625 -0.3105,0 -0.5625,-0.252 -0.5625,-0.5625 0,-0.3105 0.252,-0.5625 0.5625,-0.5625 0.3105,0 0.5625,0.252 0.5625,0.5625 z" transform="matrix(0.49999992,0,0,0.49999957,0.17142,-2.08629)" style="color:#000;fill:#fff;fill-opacity:1;fill-rule:nonzero;stroke:none;stroke-width:1;marker:none;visibility:visible;display:inline;overflow:visible"/><rect id="rect2828-4" width="2.003" height="1" x="15.984" y="16.945" rx=".331" ry=".331" style="fill:url(#radialGradient2880);fill-opacity:1;stroke:none"/><path id="rect3228-2" d="m 10.534371,3.9330403 0,5.0999852 -6.6646253,0 0,0.9220264 6.6646253,0 0,5.1143841 0.922027,0 0,-5.1143841 6.66462,0 0,-0.9220264 -6.66462,0 0,-5.0999852 -0.922027,0 z" style="opacity:.72413791;fill:#000;fill-opacity:1;stroke:none"/></g></g></svg>