<svg xmlns="http://www.w3.org/2000/svg" xmlns:svg="http://www.w3.org/2000/svg" xmlns:xlink="http://www.w3.org/1999/xlink" id="svg1306" width="48" height="48" version="1.1"><defs id="defs1308"><radialGradient id="radialGradient5031" cx="605.714" cy="486.648" r="117.143" fx="605.714" fy="486.648" gradientTransform="matrix(-2.774389,0,0,1.969706,112.7623,-872.8854)" gradientUnits="userSpaceOnUse" xlink:href="#linearGradient5060"/><linearGradient id="linearGradient5060"><stop style="stop-color:black;stop-opacity:1" id="stop5062" offset="0"/><stop style="stop-color:black;stop-opacity:0" id="stop5064" offset="1"/></linearGradient><radialGradient id="radialGradient5029" cx="605.714" cy="486.648" r="117.143" fx="605.714" fy="486.648" gradientTransform="matrix(2.774389,0,0,1.969706,-1891.633,-872.8854)" gradientUnits="userSpaceOnUse" xlink:href="#linearGradient5060"/><linearGradient id="linearGradient5048"><stop style="stop-color:black;stop-opacity:0" id="stop5050" offset="0"/><stop id="stop5056" offset=".5" style="stop-color:black;stop-opacity:1"/><stop style="stop-color:black;stop-opacity:0" id="stop5052" offset="1"/></linearGradient><linearGradient id="linearGradient5027" x1="302.857" x2="302.857" y1="366.648" y2="609.505" gradientTransform="matrix(2.774389,0,0,1.969706,-1892.179,-872.8854)" gradientUnits="userSpaceOnUse" xlink:href="#linearGradient5048"/><linearGradient id="linearGradient6447"><stop style="stop-color:#777973;stop-opacity:1" id="stop6449" offset="0"/><stop style="stop-color:#777973;stop-opacity:0" id="stop6451" offset="1"/></linearGradient><linearGradient id="linearGradient4254"><stop style="stop-color:#616161;stop-opacity:1" id="stop4256" offset="0"/><stop style="stop-color:#a0a0a0;stop-opacity:1" id="stop4258" offset="1"/></linearGradient><linearGradient id="linearGradient5176"><stop id="stop5178" offset="0" style="stop-color:#a2a59c;stop-opacity:1"/><stop id="stop5180" offset="1" style="stop-color:#535750;stop-opacity:1"/></linearGradient><linearGradient id="linearGradient2667"><stop id="stop2669" offset="0" style="stop-color:#fff;stop-opacity:1"/><stop id="stop2671" offset="1" style="stop-color:#fcfcff;stop-opacity:0"/></linearGradient><linearGradient id="linearGradient2673" x1="11.492" x2="17.199" y1="1.654" y2="26.729" gradientTransform="matrix(1.236157,0.000000,0.000000,0.896051,-1.081820,2.830699)" gradientUnits="userSpaceOnUse" xlink:href="#linearGradient2667"/><linearGradient id="linearGradient2238"><stop style="stop-color:#fff;stop-opacity:1" id="stop2240" offset="0"/><stop style="stop-color:#fff;stop-opacity:0" id="stop2242" offset="1"/></linearGradient><linearGradient id="linearGradient2214"><stop style="stop-color:#a9aaa7;stop-opacity:1" id="stop2216" offset="0"/><stop style="stop-color:#676964;stop-opacity:1" id="stop2218" offset="1"/></linearGradient><linearGradient id="linearGradient2206"><stop style="stop-color:#777973;stop-opacity:1" id="stop2208" offset="0"/><stop style="stop-color:#cbccca;stop-opacity:1" id="stop2210" offset="1"/></linearGradient><linearGradient id="linearGradient2198"><stop style="stop-color:red;stop-opacity:1" id="stop2200" offset="0"/><stop style="stop-color:#5a0000;stop-opacity:1" id="stop2202" offset="1"/></linearGradient><linearGradient id="linearGradient2204" x1="23.119" x2="22.441" y1="9.583" y2="34.226" gradientTransform="matrix(0.9500924,0,0,0.9650936,1.1833929,0.2767092)" gradientUnits="userSpaceOnUse" xlink:href="#linearGradient2198"/><linearGradient id="linearGradient2212" x1="29.87" x2="24.842" y1="32.286" y2="14.158" gradientTransform="matrix(0.957412,0.000000,0.000000,0.952331,1.022766,0.133307)" gradientUnits="userSpaceOnUse" xlink:href="#linearGradient2206"/><linearGradient id="linearGradient2220" x1="8.653" x2="21.305" y1="9.587" y2="32.498" gradientTransform="matrix(0.957412,0.000000,0.000000,0.952331,1.022766,0.133307)" gradientUnits="userSpaceOnUse" xlink:href="#linearGradient5176"/><linearGradient id="linearGradient2244" x1="20.339" x2="48.845" y1="19.637" y2="49.731" gradientTransform="matrix(0.953506,0.000000,0.000000,0.947873,1.141528,1.205591)" gradientUnits="userSpaceOnUse" xlink:href="#linearGradient2238"/><linearGradient id="linearGradient4260" x1="11.048" x2="26.178" y1="9.146" y2="30.343" gradientTransform="matrix(0.9975908,0,0,0.9893614,4.354704e-2,9.1764254e-2)" gradientUnits="userSpaceOnUse" xlink:href="#linearGradient4254"/><linearGradient id="linearGradient5719" x1="40.253" x2="36.452" y1="42.319" y2="38" gradientTransform="matrix(1.000000,0.000000,0.000000,0.744756,0.000000,9.569132)" gradientUnits="userSpaceOnUse" xlink:href="#linearGradient2214"/><radialGradient id="radialGradient6453" cx="37.496" cy="39.51" r="2.51" fx="37.496" fy="39.51" gradientTransform="matrix(1.000000,0.000000,0.000000,0.737790,0.000000,9.844321)" gradientUnits="userSpaceOnUse" xlink:href="#linearGradient6447"/><linearGradient id="linearGradient3326" x1="32.036" x2="32.036" y1="19" y2="47.012" gradientTransform="matrix(0.93928,0.34315,-0.34315,0.93928,-1.7937,-25.634)" gradientUnits="userSpaceOnUse"><stop id="stop3311-4" offset="0" style="stop-color:#f6f6f6"/><stop id="stop3313-8" offset="1" style="stop-color:#d2d2d2"/></linearGradient><linearGradient id="linearGradient3328" x1="25.923" x2="25.923" y1="19" y2="47.045" gradientTransform="matrix(0.93928,0.34315,-0.34315,0.93928,-1.7937,-25.634)" gradientUnits="userSpaceOnUse"><stop id="stop3399-0" offset="0" style="stop-color:#aaa"/><stop id="stop3401-3" offset="1" style="stop-color:#8c8c8c"/></linearGradient><linearGradient id="linearGradient2868" x1="86.133" x2="84.639" y1="105.1" y2="20.895" gradientTransform="matrix(0.2014,0,0,0.2014,3.1103,3.3117)" gradientUnits="userSpaceOnUse"><stop id="stop5130-4" offset="0" style="stop-color:#fff"/><stop id="stop5132-4" offset="1" style="stop-color:#959595"/></linearGradient><linearGradient id="linearGradient3047" x1="86.133" x2="84.639" y1="105.1" y2="20.895" gradientTransform="matrix(0.2014,0,0,0.2014,3.1103,3.3117)" gradientUnits="userSpaceOnUse" xlink:href="#linearGradient2868"/><linearGradient id="linearGradient3218" x1="34" x2="34" y1="1" y2="23" gradientTransform="translate(-24.5,0)" gradientUnits="userSpaceOnUse"><stop id="stop3311-8" offset="0" style="stop-color:#f6f6f6"/><stop id="stop3313-88" offset="1" style="stop-color:#d2d2d2"/></linearGradient><linearGradient id="linearGradient3228" x1="40" x2="40" y1="1" y2="23.02" gradientTransform="translate(-24.5,0)" gradientUnits="userSpaceOnUse"><stop id="stop3399-7" offset="0" style="stop-color:#aaa"/><stop id="stop3401-7" offset="1" style="stop-color:#8c8c8c"/></linearGradient><linearGradient id="linearGradient3241" x1="86.133" x2="84.639" y1="105.1" y2="20.895" gradientTransform="matrix(0.15623,0,0,0.15623,2.0012,2.1574)" gradientUnits="userSpaceOnUse"><stop id="stop5130-43" offset="0" style="stop-color:#eee"/><stop id="stop5132-0" offset="1" style="stop-color:#a2a2a2"/></linearGradient><clipPath id="clipPath3856" clipPathUnits="userSpaceOnUse"><rect style="fill:none;stroke:#000;stroke-width:.1;stroke-linecap:square;stroke-linejoin:miter;stroke-miterlimit:4;stroke-opacity:1;stroke-dasharray:none" id="rect3858" width="27.506" height="16.375" x="-8.698" y="-2.668" rx=".118" ry=".118"/></clipPath></defs><metadata id="metadata1311"/><g id="layer1"><g id="g5022" transform="matrix(2.454499e-2,0,0,2.086758e-2,46.14369,39.34109)"><rect id="rect4173" width="1339.633" height="478.357" x="-1559.252" y="-150.697" style="opacity:.40206185;color:#000;fill:url(#linearGradient5027);fill-opacity:1;fill-rule:nonzero;stroke:none;stroke-width:1;stroke-linecap:round;stroke-linejoin:miter;marker:none;marker-start:none;marker-mid:none;marker-end:none;stroke-miterlimit:4;stroke-dasharray:none;stroke-dashoffset:0;stroke-opacity:1;visibility:visible;display:inline;overflow:visible"/><path id="path5058" d="M -219.61876,-150.68038 C -219.61876,-150.68038 -219.61876,327.65041 -219.61876,327.65041 C -76.744594,328.55086 125.78146,220.48075 125.78138,88.454235 C 125.78138,-43.572302 -33.655436,-150.68036 -219.61876,-150.68038 z" style="opacity:.40206185;color:#000;fill:url(#radialGradient5029);fill-opacity:1;fill-rule:nonzero;stroke:none;stroke-width:1;stroke-linecap:round;stroke-linejoin:miter;marker:none;marker-start:none;marker-mid:none;marker-end:none;stroke-miterlimit:4;stroke-dasharray:none;stroke-dashoffset:0;stroke-opacity:1;visibility:visible;display:inline;overflow:visible"/><path style="opacity:.40206185;color:#000;fill:url(#radialGradient5031);fill-opacity:1;fill-rule:nonzero;stroke:none;stroke-width:1;stroke-linecap:round;stroke-linejoin:miter;marker:none;marker-start:none;marker-mid:none;marker-end:none;stroke-miterlimit:4;stroke-dasharray:none;stroke-dashoffset:0;stroke-opacity:1;visibility:visible;display:inline;overflow:visible" id="path5018" d="M -1559.2523,-150.68038 C -1559.2523,-150.68038 -1559.2523,327.65041 -1559.2523,327.65041 C -1702.1265,328.55086 -1904.6525,220.48075 -1904.6525,88.454235 C -1904.6525,-43.572302 -1745.2157,-150.68036 -1559.2523,-150.68038 z"/></g><rect style="opacity:1;fill:url(#linearGradient2212);fill-opacity:1;fill-rule:evenodd;stroke:url(#linearGradient2220);stroke-width:.99999946;stroke-linecap:round;stroke-linejoin:round;stroke-miterlimit:4;stroke-dasharray:none;stroke-dashoffset:0;stroke-opacity:1" id="rect1316" width="44.996" height="38.999" x="1.503" y="3.502" rx="4.852" ry="4.852"/><rect style="opacity:1;fill:url(#linearGradient2204);fill-opacity:1;fill-rule:evenodd;stroke:url(#linearGradient4260);stroke-width:.99467027;stroke-linecap:round;stroke-linejoin:round;stroke-miterlimit:4;stroke-dasharray:none;stroke-dashoffset:0;stroke-opacity:1" id="rect1314" width="37.088" height="29.005" x="5.436" y="7.5" rx="1.645" ry="1.644"/><g id="g2286" style="opacity:.25568182"><path id="path1345" d="M 8.0152033,11.500361 L 39.994145,11.500361" style="fill:none;fill-opacity:.75;fill-rule:evenodd;stroke:#181f10;stroke-width:1.00072134;stroke-linecap:butt;stroke-linejoin:miter;stroke-miterlimit:4;stroke-dasharray:none;stroke-opacity:1"/><path style="fill:none;fill-opacity:.75;fill-rule:evenodd;stroke:#181f10;stroke-width:1.00072134;stroke-linecap:butt;stroke-linejoin:miter;stroke-miterlimit:4;stroke-dasharray:none;stroke-opacity:1" id="path2264" d="M 8.0152033,13.500361 L 39.994145,13.500361"/><path id="path2266" d="M 8.0152033,15.500361 L 39.994145,15.500361" style="fill:none;fill-opacity:.75;fill-rule:evenodd;stroke:#181f10;stroke-width:1.00072134;stroke-linecap:butt;stroke-linejoin:miter;stroke-miterlimit:4;stroke-dasharray:none;stroke-opacity:1"/><path style="fill:none;fill-opacity:.75;fill-rule:evenodd;stroke:#181f10;stroke-width:1.00072134;stroke-linecap:butt;stroke-linejoin:miter;stroke-miterlimit:4;stroke-dasharray:none;stroke-opacity:1" id="path2268" d="M 8.0152033,17.500361 L 39.994145,17.500361"/><path id="path2270" d="M 8.0152033,19.500361 L 39.994145,19.500361" style="fill:none;fill-opacity:.75;fill-rule:evenodd;stroke:#181f10;stroke-width:1.00072134;stroke-linecap:butt;stroke-linejoin:miter;stroke-miterlimit:4;stroke-dasharray:none;stroke-opacity:1"/><path style="fill:none;fill-opacity:.75;fill-rule:evenodd;stroke:#181f10;stroke-width:1.00072134;stroke-linecap:butt;stroke-linejoin:miter;stroke-miterlimit:4;stroke-dasharray:none;stroke-opacity:1" id="path2272" d="M 8.0152033,21.500361 L 39.994145,21.500361"/><path id="path2274" d="M 8.0152033,23.500361 L 39.994145,23.500361" style="fill:none;fill-opacity:.75;fill-rule:evenodd;stroke:#181f10;stroke-width:1.00072134;stroke-linecap:butt;stroke-linejoin:miter;stroke-miterlimit:4;stroke-dasharray:none;stroke-opacity:1"/><path style="fill:none;fill-opacity:.75;fill-rule:evenodd;stroke:#181f10;stroke-width:1.00072134;stroke-linecap:butt;stroke-linejoin:miter;stroke-miterlimit:4;stroke-dasharray:none;stroke-opacity:1" id="path2276" d="M 8.0152033,25.500361 L 39.994145,25.500361"/><path id="path2278" d="M 8.0152033,27.500361 L 39.994145,27.500361" style="fill:none;fill-opacity:.75;fill-rule:evenodd;stroke:#181f10;stroke-width:1.00072134;stroke-linecap:butt;stroke-linejoin:miter;stroke-miterlimit:4;stroke-dasharray:none;stroke-opacity:1"/><path style="fill:none;fill-opacity:.75;fill-rule:evenodd;stroke:#181f10;stroke-width:1.00072134;stroke-linecap:butt;stroke-linejoin:miter;stroke-miterlimit:4;stroke-dasharray:none;stroke-opacity:1" id="path2280" d="M 8.0152033,29.500361 L 39.994145,29.500361"/><path id="path2282" d="M 8.0152033,31.500361 L 39.994145,31.500361" style="fill:none;fill-opacity:.75;fill-rule:evenodd;stroke:#181f10;stroke-width:1.00072134;stroke-linecap:butt;stroke-linejoin:miter;stroke-miterlimit:4;stroke-dasharray:none;stroke-opacity:1"/><path style="fill:none;fill-opacity:.75;fill-rule:evenodd;stroke:#181f10;stroke-width:1.00072134;stroke-linecap:butt;stroke-linejoin:miter;stroke-miterlimit:4;stroke-dasharray:none;stroke-opacity:1" id="path2284" d="M 8.0152033,33.500361 L 39.994145,33.500361"/></g><rect style="opacity:.76373626;fill:none;fill-opacity:1;fill-rule:evenodd;stroke:url(#linearGradient2244);stroke-width:.99999946;stroke-linecap:round;stroke-linejoin:round;stroke-miterlimit:4;stroke-dasharray:none;stroke-dashoffset:0;stroke-opacity:1" id="rect2232" width="42.945" height="37.001" x="2.554" y="4.501" rx="3.791" ry="3.791"/><path style="font-size:18.58501053px;font-style:normal;font-variant:normal;font-weight:700;font-stretch:normal;text-align:start;line-height:125%;writing-mode:lr-tb;text-anchor:start;fill:#fff;fill-opacity:1;stroke:red;stroke-width:.36798642pt;stroke-linecap:butt;stroke-linejoin:miter;stroke-opacity:.2786885;font-family:Bitstream Vera Sans Mono" id="text1340" d="M 8.5171086,12.191731 L 8.5171086,11.067756 L 11.823403,12.562073 L 11.823403,13.245026 L 8.5171086,14.749146 L 8.5171086,13.628511 L 11.079912,12.946316 L 8.5171086,12.191731 z M 15.469341,15.881295 L 15.469341,16.607773 L 11.457036,16.607773 L 11.457036,15.881295 L 15.469341,15.881295"/><path style="opacity:.72413791;fill:#000;fill-opacity:1;stroke:none;stroke-width:2;stroke-linecap:round;stroke-linejoin:miter;stroke-miterlimit:4;stroke-dasharray:none;stroke-opacity:.2786885" id="rect3228" d="M 23 9.9375 L 23 21 L 7.96875 21 L 7.96875 23 L 23 23 L 23 34.09375 L 25 34.09375 L 25 23 L 40.03125 23 L 40.03125 21 L 25 21 L 25 9.9375 L 23 9.9375 z"/><path style="opacity:.53142856;fill:url(#linearGradient2673);fill-opacity:1;fill-rule:evenodd;stroke:none;stroke-width:.25pt;stroke-linecap:butt;stroke-linejoin:miter;stroke-opacity:1" id="path2443" d="M 7.625388,8 C 7.102102,8 6.05153,8.190188 6.05153,9.0259761 L 6.16958,25.542519 C 23.841567,24.579133 20.294433,17.286426 42,13.633318 L 41.937264,9.2913791 C 41.859002,8.1662868 41.397947,8.0594548 40.327115,8.066071 L 7.625388,8 z"/><rect style="opacity:.71428572999999995;fill:none;fill-opacity:1;fill-rule:evenodd;stroke:#000;stroke-width:2;stroke-linecap:round;stroke-linejoin:round;stroke-miterlimit:4;stroke-dasharray:none;stroke-dashoffset:0;stroke-opacity:1" id="rect1340" width="34.026" height="26.057" x="6.989" y="8.981" rx=".118" ry=".118"/><rect style="opacity:1;fill:url(#radialGradient6453);fill-opacity:1;fill-rule:evenodd;stroke:url(#linearGradient5719);stroke-width:1.00000119;stroke-linecap:round;stroke-linejoin:miter;stroke-miterlimit:4;stroke-dasharray:none;stroke-dashoffset:0;stroke-opacity:1" id="rect5025" width="4.02" height="2.959" x="35.486" y="37.515" rx=".358" ry=".56"/><rect style="opacity:1;fill:red;fill-opacity:1;fill-rule:evenodd;stroke:none;stroke-width:2;stroke-linecap:round;stroke-linejoin:miter;stroke-miterlimit:4;stroke-dasharray:none;stroke-dashoffset:0;stroke-opacity:1" id="rect6458" width="2" height="2" x="32" y="38" rx=".56" ry=".56"/><path style="opacity:1;color:#000;fill:#fff;fill-opacity:1;fill-rule:nonzero;stroke:none;stroke-width:1;stroke-linecap:butt;stroke-linejoin:round;marker:none;marker-start:none;marker-mid:none;marker-end:none;stroke-miterlimit:4;stroke-dasharray:none;stroke-dashoffset:0;stroke-opacity:1;visibility:visible;display:inline;overflow:visible" id="path2300" d="M 28.875 38.75 A 0.5625 0.5625 0 1 1 27.75,38.75 A 0.5625 0.5625 0 1 1 28.875 38.75 z" transform="translate(4.375000,-6.250000e-2)"/><path style="font-size:18.58501053px;font-style:normal;font-variant:normal;font-weight:700;font-stretch:normal;text-align:start;line-height:125%;writing-mode:lr-tb;text-anchor:start;fill:#fff;fill-opacity:1;stroke:red;stroke-width:.36798642pt;stroke-linecap:butt;stroke-linejoin:miter;stroke-opacity:.2786885;font-family:Bitstream Vera Sans Mono" id="path3221" d="M 25.694705,12.191731 L 25.694705,11.067756 L 29.001001,12.562073 L 29.001001,13.245026 L 25.694705,14.749146 L 25.694705,13.628511 L 28.257509,12.946316 L 25.694705,12.191731 z M 32.646939,15.881295 L 32.646939,16.607773 L 28.634633,16.607773 L 28.634633,15.881295 L 32.646939,15.881295"/><path style="font-size:18.58501053px;font-style:normal;font-variant:normal;font-weight:700;font-stretch:normal;text-align:start;line-height:125%;writing-mode:lr-tb;text-anchor:start;fill:#fff;fill-opacity:1;stroke:red;stroke-width:.36798642pt;stroke-linecap:butt;stroke-linejoin:miter;stroke-opacity:.2786885;font-family:Bitstream Vera Sans Mono" id="path3223" d="M 8.5171086,26.538666 L 8.5171086,25.414691 L 11.823408,26.909008 L 11.823408,27.591961 L 8.5171086,29.096081 L 8.5171086,27.975446 L 11.079916,27.293251 L 8.5171086,26.538666 z M 15.469346,30.22823 L 15.469346,30.954708 L 11.457041,30.954708 L 11.457041,30.22823 L 15.469346,30.22823"/><path style="font-size:18.58501053px;font-style:normal;font-variant:normal;font-weight:700;font-stretch:normal;text-align:start;line-height:125%;writing-mode:lr-tb;text-anchor:start;fill:#fff;fill-opacity:1;stroke:red;stroke-width:.36798642pt;stroke-linecap:butt;stroke-linejoin:miter;stroke-opacity:.2786885;font-family:Bitstream Vera Sans Mono" id="path3226" d="M 25.694704,26.606311 L 25.694704,25.482336 L 29.001002,26.976653 L 29.001002,27.659606 L 25.694704,29.163726 L 25.694704,28.043091 L 28.257511,27.360896 L 25.694704,26.606311 z M 32.64694,30.295875 L 32.64694,31.022353 L 28.634636,31.022353 L 28.634636,30.295875 L 32.64694,30.295875"/><g id="layer1-3" clip-path="url(#clipPath3856)" transform="matrix(1.5037888,0,0,1.5037888,11.6752,13.441057)"><g id="g2486"><path id="rect2426" d="M 10.188,1.5 C 9.7991,1.5 9.5,1.7991 9.5,2.1875 V 3.875 C 8.9883,4.0322 8.4968,4.2538 8.0312,4.5 L 6.8438,3.3125 c -0.27462,-0.27462 -0.72538,-0.27462 -1,0 L 3.3125,5.8438 c -0.27462,0.27462 -0.27462,0.72538 0,1 L 4.5,8.0312 C 4.2538,8.4968 4.0322,8.9883 3.875,9.5 H 2.1875 C 1.7991,9.5 1.5,9.7991 1.5,10.188 v 3.625 c 0,0.388 0.2991,0.687 0.6875,0.687 H 3.875 c 0.15722,0.51167 0.37877,1.0032 0.625,1.4688 l -1.1875,1.1875 c -0.27462,0.27462 -0.27462,0.72538 0,1 l 2.5312,2.5312 c 0.27462,0.27462 0.72538,0.27462 1,0 l 1.1875,-1.187 c 0.4656,0.246 0.9571,0.468 1.4688,0.625 v 1.6875 c 0,0.38837 0.29914,0.6875 0.6875,0.6875 h 3.625 c 0.38837,0 0.6875,-0.29913 0.6875,-0.6875 v -1.6875 c 0.51167,-0.15722 1.0032,-0.37877 1.4688,-0.625 l 1.1875,1.1875 c 0.27462,0.27462 0.72538,0.27462 1,0 l 2.5312,-2.5312 c 0.27462,-0.27462 0.27462,-0.72538 0,-1 l -1.187,-1.186 c 0.246,-0.466 0.468,-0.957 0.625,-1.469 h 1.6875 c 0.38837,0 0.6875,-0.29913 0.6875,-0.6875 v -3.625 c 0,-0.3879 -0.299,-0.687 -0.688,-0.687 H 20.125 C 19.969,8.9906 19.747,8.4991 19.501,8.0335 L 20.6885,6.846 c 0.27462,-0.27462 0.27462,-0.72538 0,-1 l -2.532,-2.5312 c -0.27462,-0.27462 -0.72538,-0.27462 -1,0 l -1.187,1.1875 c -0.466,-0.2462 -0.957,-0.4678 -1.469,-0.625 V 2.1898 c 0,-0.3884 -0.299,-0.6875 -0.688,-0.6875 h -3.625 z M 12,9 c 1.656,0 3,1.344 3,3 0,1.656 -1.344,3 -3,3 -1.656,0 -3,-1.344 -3,-3 0,-1.656 1.344,-3 3,-3 z" style="fill:url(#linearGradient3218);stroke:url(#linearGradient3228);stroke-linejoin:round;display:block"/><path id="path3315-9" d="m 12,6 c -3.3085,-2e-7 -6,2.6915 -6,6 0,3.3085 2.6915,6 6,6 3.3085,-1e-6 6,-2.6915 6,-6 0,-3.3085 -2.6915,-6 -6,-6 z m 0,2.7692 c 1.7834,0 3.2308,1.4474 3.2308,3.2308 0,1.7834 -1.4474,3.2308 -3.2308,3.2308 -1.7834,0 -3.2308,-1.4474 -3.2308,-3.2308 0,-1.7834 1.4474,-3.2308 3.2308,-3.2308 z" style="opacity:.05"/><path id="path28-2" d="m 12,5.5 c -3.5841,0 -6.5,2.9159 -6.5,6.5 0,3.584 2.9159,6.5 6.5,6.5 3.584,0 6.5,-2.916 6.5,-6.5 0,-3.5841 -2.916,-6.5 -6.5,-6.5 z" style="fill:none;stroke:url(#linearGradient3241)"/></g></g></g></svg>