<svg xmlns="http://www.w3.org/2000/svg" xmlns:svg="http://www.w3.org/2000/svg" xmlns:xlink="http://www.w3.org/1999/xlink" id="svg1306" width="48" height="48" version="1.1"><defs id="defs1308"><linearGradient id="linearGradient4034"><stop style="stop-color:#000;stop-opacity:1" id="stop4036" offset="0"/><stop id="stop4042" offset=".541" style="stop-color:#000;stop-opacity:1"/><stop style="stop-color:#000;stop-opacity:0" id="stop4038" offset="1"/></linearGradient><linearGradient id="linearGradient4024"><stop id="stop4026" offset="0" style="stop-color:#000;stop-opacity:1"/><stop style="stop-color:#000;stop-opacity:.99607843" id="stop4028" offset=".667"/><stop id="stop4030" offset="1" style="stop-color:#000;stop-opacity:0"/></linearGradient><linearGradient id="linearGradient3930"><stop style="stop-color:#fff;stop-opacity:1" id="stop3932" offset="0"/><stop style="stop-color:#fff;stop-opacity:0" id="stop3934" offset="1"/></linearGradient><linearGradient id="linearGradient3900"><stop style="stop-color:#000;stop-opacity:1" id="stop3902" offset="0"/><stop style="stop-color:#000;stop-opacity:0" id="stop3904" offset="1"/></linearGradient><linearGradient id="linearGradient3890"><stop style="stop-color:#fff;stop-opacity:1" id="stop3892" offset="0"/><stop style="stop-color:#fff;stop-opacity:0" id="stop3894" offset="1"/></linearGradient><linearGradient id="linearGradient5943"><stop style="stop-color:#e4e4e4;stop-opacity:1" id="stop5945" offset="0"/><stop style="stop-color:#848484;stop-opacity:1" id="stop5947" offset="1"/></linearGradient><radialGradient id="radialGradient5031" cx="605.714" cy="486.648" r="117.143" fx="605.714" fy="486.648" gradientTransform="matrix(-2.774389,0,0,1.969706,112.7623,-872.8854)" gradientUnits="userSpaceOnUse" xlink:href="#linearGradient5060"/><linearGradient id="linearGradient5060"><stop style="stop-color:black;stop-opacity:1" id="stop5062" offset="0"/><stop style="stop-color:black;stop-opacity:0" id="stop5064" offset="1"/></linearGradient><radialGradient id="radialGradient5029" cx="605.714" cy="486.648" r="117.143" fx="605.714" fy="486.648" gradientTransform="matrix(2.774389,0,0,1.969706,-1891.633,-872.8854)" gradientUnits="userSpaceOnUse" xlink:href="#linearGradient5060"/><linearGradient id="linearGradient5048"><stop style="stop-color:black;stop-opacity:0" id="stop5050" offset="0"/><stop id="stop5056" offset=".5" style="stop-color:black;stop-opacity:1"/><stop style="stop-color:black;stop-opacity:0" id="stop5052" offset="1"/></linearGradient><linearGradient id="linearGradient5027" x1="302.857" x2="302.857" y1="366.648" y2="609.505" gradientTransform="matrix(2.774389,0,0,1.969706,-1892.179,-872.8854)" gradientUnits="userSpaceOnUse" xlink:href="#linearGradient5048"/><linearGradient id="linearGradient6447"><stop style="stop-color:#777973;stop-opacity:1" id="stop6449" offset="0"/><stop style="stop-color:#777973;stop-opacity:0" id="stop6451" offset="1"/></linearGradient><linearGradient id="linearGradient4254"><stop style="stop-color:#616161;stop-opacity:1" id="stop4256" offset="0"/><stop style="stop-color:#a0a0a0;stop-opacity:1" id="stop4258" offset="1"/></linearGradient><linearGradient id="linearGradient5176"><stop id="stop5178" offset="0" style="stop-color:#a2a59c;stop-opacity:1"/><stop id="stop5180" offset="1" style="stop-color:#535750;stop-opacity:1"/></linearGradient><linearGradient id="linearGradient2667"><stop id="stop2669" offset="0" style="stop-color:#fff;stop-opacity:1"/><stop id="stop2671" offset="1" style="stop-color:#fcfcff;stop-opacity:0"/></linearGradient><linearGradient id="linearGradient2673" x1="11.492" x2="17.199" y1="1.654" y2="26.729" gradientTransform="matrix(1.236157,0.000000,0.000000,0.896051,-1.081820,2.830699)" gradientUnits="userSpaceOnUse" xlink:href="#linearGradient2667"/><linearGradient id="linearGradient2238"><stop style="stop-color:#fff;stop-opacity:1" id="stop2240" offset="0"/><stop style="stop-color:#fff;stop-opacity:0" id="stop2242" offset="1"/></linearGradient><linearGradient id="linearGradient2214"><stop style="stop-color:#a9aaa7;stop-opacity:1" id="stop2216" offset="0"/><stop style="stop-color:#676964;stop-opacity:1" id="stop2218" offset="1"/></linearGradient><linearGradient id="linearGradient2206"><stop style="stop-color:#777973;stop-opacity:1" id="stop2208" offset="0"/><stop style="stop-color:#cbccca;stop-opacity:1" id="stop2210" offset="1"/></linearGradient><linearGradient id="linearGradient2198"><stop style="stop-color:red;stop-opacity:1" id="stop2200" offset="0"/><stop style="stop-color:#5a0000;stop-opacity:1" id="stop2202" offset="1"/></linearGradient><linearGradient id="linearGradient2204" x1="23.119" x2="22.441" y1="9.583" y2="34.226" gradientTransform="matrix(0.9500924,0,0,0.9650936,1.1833929,0.2767092)" gradientUnits="userSpaceOnUse" xlink:href="#linearGradient2198"/><linearGradient id="linearGradient2212" x1="29.87" x2="24.842" y1="32.286" y2="14.158" gradientTransform="matrix(0.957412,0.000000,0.000000,0.952331,1.022766,0.133307)" gradientUnits="userSpaceOnUse" xlink:href="#linearGradient2206"/><linearGradient id="linearGradient2220" x1="8.653" x2="21.305" y1="9.587" y2="32.498" gradientTransform="matrix(0.957412,0.000000,0.000000,0.952331,1.022766,0.133307)" gradientUnits="userSpaceOnUse" xlink:href="#linearGradient5176"/><linearGradient id="linearGradient2244" x1="20.339" x2="48.845" y1="19.637" y2="49.731" gradientTransform="matrix(0.953506,0.000000,0.000000,0.947873,1.141528,1.205591)" gradientUnits="userSpaceOnUse" xlink:href="#linearGradient2238"/><linearGradient id="linearGradient4260" x1="11.048" x2="26.178" y1="9.146" y2="30.343" gradientTransform="matrix(0.9975908,0,0,0.9893614,4.354704e-2,9.1764254e-2)" gradientUnits="userSpaceOnUse" xlink:href="#linearGradient4254"/><linearGradient id="linearGradient5719" x1="40.253" x2="36.452" y1="42.319" y2="38" gradientTransform="matrix(1.000000,0.000000,0.000000,0.744756,0.000000,9.569132)" gradientUnits="userSpaceOnUse" xlink:href="#linearGradient2214"/><radialGradient id="radialGradient6453" cx="37.496" cy="39.51" r="2.51" fx="37.496" fy="39.51" gradientTransform="matrix(1.000000,0.000000,0.000000,0.737790,0.000000,9.844321)" gradientUnits="userSpaceOnUse" xlink:href="#linearGradient6447"/><linearGradient id="linearGradient2958" x1="304.76" x2="335.3" y1="64.295" y2="81.926" gradientTransform="matrix(1.363,0,0,1.3617,-402.9,-65.884)" gradientUnits="userSpaceOnUse"><stop id="stop4436" offset="0" style="stop-color:#d3d7cf"/><stop id="stop4438" offset=".183" style="stop-color:#babdb6"/><stop id="stop4440" offset=".319" style="stop-color:#fff"/><stop id="stop4442" offset=".876" style="stop-color:#babdb6"/><stop id="stop4444" offset="1" style="stop-color:#eeeeec"/></linearGradient><linearGradient id="linearGradient2960" x1="324.5" x2="330.06" y1="70.282" y2="99.274" gradientTransform="matrix(1.363,0,0,1.3617,-402.9,-65.884)" gradientUnits="userSpaceOnUse"><stop id="stop7446" offset="0" style="stop-color:#888a85"/><stop id="stop7448" offset="1" style="stop-color:#555753"/></linearGradient><linearGradient id="linearGradient4734" x1="302.29" x2="308.65" y1="58.443" y2="60.768" gradientTransform="matrix(1.363,0,0,1.3617,-402.9,-65.884)" gradientUnits="userSpaceOnUse"><stop id="stop7383" offset="0" style="stop-color:#babdb6"/><stop id="stop7385" offset="1" style="stop-color:#fff"/></linearGradient><linearGradient id="linearGradient4758" x1="326.6" x2="317.16" y1="75.575" y2="88.006" gradientTransform="matrix(1.363,0,0,1.3617,-402.9,-65.884)" gradientUnits="userSpaceOnUse"><stop id="stop7423" offset="0" style="stop-color:#fff"/><stop id="stop7425" offset="1" style="stop-color:#fff;stop-opacity:0"/></linearGradient><radialGradient id="radialGradient2915" cx="21.96" cy="34.498" r="12.728" gradientTransform="matrix(0.5406,0,0,0.16183,29.247,40.449)" gradientUnits="userSpaceOnUse" xlink:href="#linearGradient6221"/><linearGradient id="linearGradient6221"><stop id="stop6223" offset="0"/><stop id="stop6225" offset="1" style="stop-opacity:0"/></linearGradient><radialGradient id="radialGradient2912" cx="21.96" cy="34.498" r="12.728" gradientTransform="matrix(0.23695,0,0,0.090597,36.781,43.759)" gradientUnits="userSpaceOnUse" xlink:href="#linearGradient6221"/><linearGradient id="linearGradient4103"><stop id="stop4105" offset="0"/><stop id="stop4107" offset="1" style="stop-opacity:0"/></linearGradient><linearGradient id="linearGradient4668" x1="97.442" x2="90.221" y1="35.152" y2="35.079" gradientTransform="matrix(0.82274,-0.82219,0.71961,0.71912,-71.184,83.621)" gradientUnits="userSpaceOnUse"><stop id="stop4958" offset="0" style="stop-color:#f8b17e"/><stop id="stop4960" offset=".262" style="stop-color:#e35d4f"/><stop id="stop4962" offset=".663" style="stop-color:#c6262e"/><stop id="stop4964" offset="1" style="stop-color:#690b54"/></linearGradient><linearGradient id="linearGradient4972" x1="29.278" x2="36.001" y1="34.023" y2="27.273" gradientTransform="translate(0.91859,2.0745)" gradientUnits="userSpaceOnUse"><stop id="stop2492" offset="0" style="stop-color:#791235"/><stop id="stop2494" offset="1" style="stop-color:#dd3b27"/></linearGradient><linearGradient id="linearGradient4665" x1="-6.308" x2="-9.775" y1="44.229" y2="44.14" gradientTransform="matrix(0.50045,-0.49965,0.84917,0.84785,0.80738,-6.9351)" gradientUnits="userSpaceOnUse" xlink:href="#linearGradient6221"/><linearGradient id="linearGradient4118"><stop id="stop4120" offset="0"/><stop id="stop4122" offset="1" style="stop-opacity:0"/></linearGradient><linearGradient id="linearGradient4133" x1="-6.308" x2="-9.775" y1="44.229" y2="44.14" gradientTransform="matrix(0.50045,-0.49965,0.84917,0.84785,0.80738,-6.9351)" gradientUnits="userSpaceOnUse" xlink:href="#linearGradient6221"/><linearGradient id="linearGradient5949" x1="-69.68" x2="-75.664" y1="36.214" y2="27.558" gradientUnits="userSpaceOnUse" xlink:href="#linearGradient5943"/><linearGradient id="linearGradient5957" x1="-76.875" x2="-69.25" y1="26.406" y2="36.813" gradientUnits="userSpaceOnUse" xlink:href="#linearGradient5943"/><linearGradient id="linearGradient5964" x1="-76.875" x2="-69.25" y1="26.406" y2="36.813" gradientUnits="userSpaceOnUse" xlink:href="#linearGradient5943"/><linearGradient id="linearGradient5966" x1="-69.68" x2="-75.664" y1="36.214" y2="27.558" gradientUnits="userSpaceOnUse" xlink:href="#linearGradient5943"/><linearGradient id="linearGradient3896" x1="-41.394" x2="-36.595" y1="3.443" y2="8.679" gradientUnits="userSpaceOnUse" xlink:href="#linearGradient3890"/><linearGradient id="linearGradient3906" x1="-32.719" x2="-34.125" y1="14.112" y2="11.424" gradientUnits="userSpaceOnUse" xlink:href="#linearGradient3900"/><filter id="filter3916"><feGaussianBlur id="feGaussianBlur3918" stdDeviation=".064"/></filter><filter id="filter3924"><feGaussianBlur id="feGaussianBlur3926" stdDeviation=".085"/></filter><linearGradient id="linearGradient3936" x1="-32.13" x2="-31.94" y1="10.358" y2="10.7" gradientUnits="userSpaceOnUse" xlink:href="#linearGradient3930"/><linearGradient id="linearGradient3936-3" x1="-32.13" x2="-31.94" y1="10.358" y2="10.7" gradientUnits="userSpaceOnUse" xlink:href="#linearGradient3930-8"/><linearGradient id="linearGradient3930-8"><stop style="stop-color:#000;stop-opacity:1" id="stop3932-1" offset="0"/><stop style="stop-color:#000;stop-opacity:0" id="stop3934-3" offset="1"/></linearGradient><linearGradient id="linearGradient3953" x1="-32.13" x2="-31.94" y1="10.358" y2="10.7" gradientTransform="matrix(-1.0808629,0,0,-1.0808629,-71.130351,13.91307)" gradientUnits="userSpaceOnUse" xlink:href="#linearGradient3930-8"/><filter id="filter3976"><feGaussianBlur id="feGaussianBlur3978" stdDeviation=".043"/></filter><linearGradient id="linearGradient3953-4" x1="-32.13" x2="-31.94" y1="10.358" y2="10.7" gradientTransform="matrix(-1.0808629,0,0,-1.0808629,-71.130351,13.91307)" gradientUnits="userSpaceOnUse" xlink:href="#linearGradient3930-8-5"/><linearGradient id="linearGradient3930-8-5"><stop style="stop-color:#000;stop-opacity:1" id="stop3932-1-8" offset="0"/><stop id="stop4022" offset=".5" style="stop-color:#000;stop-opacity:.99607843"/><stop style="stop-color:#000;stop-opacity:0" id="stop3934-3-4" offset="1"/></linearGradient><filter id="filter3976-2" color-interpolation-filters="sRGB"><feGaussianBlur id="feGaussianBlur3978-3" stdDeviation=".043"/></filter><radialGradient id="radialGradient4020" cx="-38.273" cy="4.948" r="1.697" fx="-38.273" fy="4.948" gradientTransform="matrix(1.0316209,-0.97143642,0.59437745,0.63120161,-1.7307739,-35.56584)" gradientUnits="userSpaceOnUse" xlink:href="#linearGradient4024"/><radialGradient id="radialGradient4040" cx="-65.495" cy="36.941" r="2.648" fx="-65.495" fy="36.941" gradientTransform="matrix(2.0209357,2.0602577,-2.3196098,2.2753377,152.55479,87.800104)" gradientUnits="userSpaceOnUse" xlink:href="#linearGradient4034"/><filter id="filter4100"><feGaussianBlur id="feGaussianBlur4102" stdDeviation=".169"/></filter><filter id="filter4108"><feGaussianBlur id="feGaussianBlur4110" stdDeviation=".158"/></filter><linearGradient id="linearGradient4158" x1="-76.875" x2="-69.25" y1="26.406" y2="36.813" gradientUnits="userSpaceOnUse" xlink:href="#linearGradient5943"/><linearGradient id="linearGradient4160" x1="-69.68" x2="-75.664" y1="36.214" y2="27.558" gradientUnits="userSpaceOnUse" xlink:href="#linearGradient5943"/><linearGradient id="linearGradient4162" x1="-41.394" x2="-36.595" y1="3.443" y2="8.679" gradientUnits="userSpaceOnUse" xlink:href="#linearGradient3890"/><linearGradient id="linearGradient4164" x1="-32.719" x2="-34.125" y1="14.112" y2="11.424" gradientUnits="userSpaceOnUse" xlink:href="#linearGradient3900"/><linearGradient id="linearGradient4166" x1="-32.13" x2="-31.94" y1="10.358" y2="10.7" gradientUnits="userSpaceOnUse" xlink:href="#linearGradient3930"/><linearGradient id="linearGradient4168" x1="-32.13" x2="-31.94" y1="10.358" y2="10.7" gradientTransform="matrix(-1.0808629,0,0,-1.0808629,-71.130351,13.91307)" gradientUnits="userSpaceOnUse" xlink:href="#linearGradient3930-8"/><radialGradient id="radialGradient4170" cx="-38.273" cy="4.948" r="1.697" fx="-38.273" fy="4.948" gradientTransform="matrix(1.0316209,-0.97143642,0.59437745,0.63120161,-1.7307739,-35.56584)" gradientUnits="userSpaceOnUse" xlink:href="#linearGradient4024"/><radialGradient id="radialGradient4172" cx="-65.495" cy="36.941" r="2.648" fx="-65.495" fy="36.941" gradientTransform="matrix(2.0209357,2.0602577,-2.3196098,2.2753377,152.55479,87.800104)" gradientUnits="userSpaceOnUse" xlink:href="#linearGradient4034"/><radialGradient id="radialGradient4178" cx="-65.495" cy="36.941" r="2.648" fx="-65.495" fy="36.941" gradientTransform="matrix(2.0209357,2.0602577,-2.3196098,2.2753377,166.80479,143.05011)" gradientUnits="userSpaceOnUse" xlink:href="#linearGradient4034"/><linearGradient id="linearGradient4183" x1="-32.13" x2="-31.94" y1="10.358" y2="10.7" gradientTransform="translate(14.250001,55.250003)" gradientUnits="userSpaceOnUse" xlink:href="#linearGradient3930"/><linearGradient id="linearGradient4186" x1="-32.719" x2="-34.125" y1="14.112" y2="11.424" gradientTransform="translate(14.250001,55.250003)" gradientUnits="userSpaceOnUse" xlink:href="#linearGradient3900"/><linearGradient id="linearGradient4189" x1="-41.394" x2="-36.595" y1="3.443" y2="8.679" gradientTransform="translate(14.250001,55.250003)" gradientUnits="userSpaceOnUse" xlink:href="#linearGradient3890"/><filter id="filter4266"><feGaussianBlur id="feGaussianBlur4268" stdDeviation=".474"/></filter></defs><metadata id="metadata1311"/><g id="layer1"><g id="g5022" transform="matrix(2.454499e-2,0,0,2.086758e-2,46.14369,39.34109)"><rect id="rect4173" width="1339.633" height="478.357" x="-1559.252" y="-150.697" style="opacity:.40206185;color:#000;fill:url(#linearGradient5027);fill-opacity:1;fill-rule:nonzero;stroke:none;stroke-width:1;stroke-linecap:round;stroke-linejoin:miter;marker:none;marker-start:none;marker-mid:none;marker-end:none;stroke-miterlimit:4;stroke-dasharray:none;stroke-dashoffset:0;stroke-opacity:1;visibility:visible;display:inline;overflow:visible"/><path id="path5058" d="M -219.61876,-150.68038 C -219.61876,-150.68038 -219.61876,327.65041 -219.61876,327.65041 C -76.744594,328.55086 125.78146,220.48075 125.78138,88.454235 C 125.78138,-43.572302 -33.655436,-150.68036 -219.61876,-150.68038 z" style="opacity:.40206185;color:#000;fill:url(#radialGradient5029);fill-opacity:1;fill-rule:nonzero;stroke:none;stroke-width:1;stroke-linecap:round;stroke-linejoin:miter;marker:none;marker-start:none;marker-mid:none;marker-end:none;stroke-miterlimit:4;stroke-dasharray:none;stroke-dashoffset:0;stroke-opacity:1;visibility:visible;display:inline;overflow:visible"/><path style="opacity:.40206185;color:#000;fill:url(#radialGradient5031);fill-opacity:1;fill-rule:nonzero;stroke:none;stroke-width:1;stroke-linecap:round;stroke-linejoin:miter;marker:none;marker-start:none;marker-mid:none;marker-end:none;stroke-miterlimit:4;stroke-dasharray:none;stroke-dashoffset:0;stroke-opacity:1;visibility:visible;display:inline;overflow:visible" id="path5018" d="M -1559.2523,-150.68038 C -1559.2523,-150.68038 -1559.2523,327.65041 -1559.2523,327.65041 C -1702.1265,328.55086 -1904.6525,220.48075 -1904.6525,88.454235 C -1904.6525,-43.572302 -1745.2157,-150.68036 -1559.2523,-150.68038 z"/></g><rect style="opacity:1;fill:url(#linearGradient2212);fill-opacity:1;fill-rule:evenodd;stroke:url(#linearGradient2220);stroke-width:.99999946;stroke-linecap:round;stroke-linejoin:round;stroke-miterlimit:4;stroke-dasharray:none;stroke-dashoffset:0;stroke-opacity:1" id="rect1316" width="44.996" height="38.999" x="1.503" y="3.502" rx="4.852" ry="4.852"/><rect style="opacity:1;fill:url(#linearGradient2204);fill-opacity:1;fill-rule:evenodd;stroke:url(#linearGradient4260);stroke-width:.99467027;stroke-linecap:round;stroke-linejoin:round;stroke-miterlimit:4;stroke-dasharray:none;stroke-dashoffset:0;stroke-opacity:1" id="rect1314" width="37.088" height="29.005" x="5.436" y="7.5" rx="1.645" ry="1.644"/><g id="g2286" style="opacity:.25568182"><path id="path1345" d="M 8.0152033,11.500361 L 39.994145,11.500361" style="fill:none;fill-opacity:.75;fill-rule:evenodd;stroke:#181f10;stroke-width:1.00072134;stroke-linecap:butt;stroke-linejoin:miter;stroke-miterlimit:4;stroke-dasharray:none;stroke-opacity:1"/><path style="fill:none;fill-opacity:.75;fill-rule:evenodd;stroke:#181f10;stroke-width:1.00072134;stroke-linecap:butt;stroke-linejoin:miter;stroke-miterlimit:4;stroke-dasharray:none;stroke-opacity:1" id="path2264" d="M 8.0152033,13.500361 L 39.994145,13.500361"/><path id="path2266" d="M 8.0152033,15.500361 L 39.994145,15.500361" style="fill:none;fill-opacity:.75;fill-rule:evenodd;stroke:#181f10;stroke-width:1.00072134;stroke-linecap:butt;stroke-linejoin:miter;stroke-miterlimit:4;stroke-dasharray:none;stroke-opacity:1"/><path style="fill:none;fill-opacity:.75;fill-rule:evenodd;stroke:#181f10;stroke-width:1.00072134;stroke-linecap:butt;stroke-linejoin:miter;stroke-miterlimit:4;stroke-dasharray:none;stroke-opacity:1" id="path2268" d="M 8.0152033,17.500361 L 39.994145,17.500361"/><path id="path2270" d="M 8.0152033,19.500361 L 39.994145,19.500361" style="fill:none;fill-opacity:.75;fill-rule:evenodd;stroke:#181f10;stroke-width:1.00072134;stroke-linecap:butt;stroke-linejoin:miter;stroke-miterlimit:4;stroke-dasharray:none;stroke-opacity:1"/><path style="fill:none;fill-opacity:.75;fill-rule:evenodd;stroke:#181f10;stroke-width:1.00072134;stroke-linecap:butt;stroke-linejoin:miter;stroke-miterlimit:4;stroke-dasharray:none;stroke-opacity:1" id="path2272" d="M 8.0152033,21.500361 L 39.994145,21.500361"/><path id="path2274" d="M 8.0152033,23.500361 L 39.994145,23.500361" style="fill:none;fill-opacity:.75;fill-rule:evenodd;stroke:#181f10;stroke-width:1.00072134;stroke-linecap:butt;stroke-linejoin:miter;stroke-miterlimit:4;stroke-dasharray:none;stroke-opacity:1"/><path style="fill:none;fill-opacity:.75;fill-rule:evenodd;stroke:#181f10;stroke-width:1.00072134;stroke-linecap:butt;stroke-linejoin:miter;stroke-miterlimit:4;stroke-dasharray:none;stroke-opacity:1" id="path2276" d="M 8.0152033,25.500361 L 39.994145,25.500361"/><path id="path2278" d="M 8.0152033,27.500361 L 39.994145,27.500361" style="fill:none;fill-opacity:.75;fill-rule:evenodd;stroke:#181f10;stroke-width:1.00072134;stroke-linecap:butt;stroke-linejoin:miter;stroke-miterlimit:4;stroke-dasharray:none;stroke-opacity:1"/><path style="fill:none;fill-opacity:.75;fill-rule:evenodd;stroke:#181f10;stroke-width:1.00072134;stroke-linecap:butt;stroke-linejoin:miter;stroke-miterlimit:4;stroke-dasharray:none;stroke-opacity:1" id="path2280" d="M 8.0152033,29.500361 L 39.994145,29.500361"/><path id="path2282" d="M 8.0152033,31.500361 L 39.994145,31.500361" style="fill:none;fill-opacity:.75;fill-rule:evenodd;stroke:#181f10;stroke-width:1.00072134;stroke-linecap:butt;stroke-linejoin:miter;stroke-miterlimit:4;stroke-dasharray:none;stroke-opacity:1"/><path style="fill:none;fill-opacity:.75;fill-rule:evenodd;stroke:#181f10;stroke-width:1.00072134;stroke-linecap:butt;stroke-linejoin:miter;stroke-miterlimit:4;stroke-dasharray:none;stroke-opacity:1" id="path2284" d="M 8.0152033,33.500361 L 39.994145,33.500361"/></g><rect style="opacity:.76373626;fill:none;fill-opacity:1;fill-rule:evenodd;stroke:url(#linearGradient2244);stroke-width:.99999946;stroke-linecap:round;stroke-linejoin:round;stroke-miterlimit:4;stroke-dasharray:none;stroke-dashoffset:0;stroke-opacity:1" id="rect2232" width="42.945" height="37.001" x="2.554" y="4.501" rx="3.791" ry="3.791"/><path style="font-size:18.58501053px;font-style:normal;font-variant:normal;font-weight:700;font-stretch:normal;text-align:start;line-height:125%;writing-mode:lr-tb;text-anchor:start;fill:#fff;fill-opacity:1;stroke:red;stroke-width:.36798642pt;stroke-linecap:butt;stroke-linejoin:miter;stroke-opacity:.2786885;font-family:Bitstream Vera Sans Mono" id="text1340" d="M 8.5171086,12.191731 L 8.5171086,11.067756 L 11.823403,12.562073 L 11.823403,13.245026 L 8.5171086,14.749146 L 8.5171086,13.628511 L 11.079912,12.946316 L 8.5171086,12.191731 z M 15.469341,15.881295 L 15.469341,16.607773 L 11.457036,16.607773 L 11.457036,15.881295 L 15.469341,15.881295"/><path style="opacity:.72413791;fill:#000;fill-opacity:1;stroke:none;stroke-width:2;stroke-linecap:round;stroke-linejoin:miter;stroke-miterlimit:4;stroke-dasharray:none;stroke-opacity:.2786885" id="rect3228" d="M 23 9.9375 L 23 21 L 7.96875 21 L 7.96875 23 L 23 23 L 23 34.09375 L 25 34.09375 L 25 23 L 40.03125 23 L 40.03125 21 L 25 21 L 25 9.9375 L 23 9.9375 z"/><path style="opacity:.53142856;fill:url(#linearGradient2673);fill-opacity:1;fill-rule:evenodd;stroke:none;stroke-width:.25pt;stroke-linecap:butt;stroke-linejoin:miter;stroke-opacity:1" id="path2443" d="M 7.625388,8 C 7.102102,8 6.05153,8.190188 6.05153,9.0259761 L 6.16958,25.542519 C 23.841567,24.579133 20.294433,17.286426 42,13.633318 L 41.937264,9.2913791 C 41.859002,8.1662868 41.397947,8.0594548 40.327115,8.066071 L 7.625388,8 z"/><rect style="opacity:.71428572999999995;fill:none;fill-opacity:1;fill-rule:evenodd;stroke:#000;stroke-width:2;stroke-linecap:round;stroke-linejoin:round;stroke-miterlimit:4;stroke-dasharray:none;stroke-dashoffset:0;stroke-opacity:1" id="rect1340" width="34.026" height="26.057" x="6.989" y="8.981" rx=".118" ry=".118"/><rect style="opacity:1;fill:url(#radialGradient6453);fill-opacity:1;fill-rule:evenodd;stroke:url(#linearGradient5719);stroke-width:1.00000119;stroke-linecap:round;stroke-linejoin:miter;stroke-miterlimit:4;stroke-dasharray:none;stroke-dashoffset:0;stroke-opacity:1" id="rect5025" width="4.02" height="2.959" x="35.486" y="37.515" rx=".358" ry=".56"/><rect style="opacity:1;fill:red;fill-opacity:1;fill-rule:evenodd;stroke:none;stroke-width:2;stroke-linecap:round;stroke-linejoin:miter;stroke-miterlimit:4;stroke-dasharray:none;stroke-dashoffset:0;stroke-opacity:1" id="rect6458" width="2" height="2" x="32" y="38" rx=".56" ry=".56"/><path style="opacity:1;color:#000;fill:#fff;fill-opacity:1;fill-rule:nonzero;stroke:none;stroke-width:1;stroke-linecap:butt;stroke-linejoin:round;marker:none;marker-start:none;marker-mid:none;marker-end:none;stroke-miterlimit:4;stroke-dasharray:none;stroke-dashoffset:0;stroke-opacity:1;visibility:visible;display:inline;overflow:visible" id="path2300" d="M 28.875 38.75 A 0.5625 0.5625 0 1 1 27.75,38.75 A 0.5625 0.5625 0 1 1 28.875 38.75 z" transform="translate(4.375000,-6.250000e-2)"/><path style="font-size:18.58501053px;font-style:normal;font-variant:normal;font-weight:700;font-stretch:normal;text-align:start;line-height:125%;writing-mode:lr-tb;text-anchor:start;fill:#fff;fill-opacity:1;stroke:red;stroke-width:.36798642pt;stroke-linecap:butt;stroke-linejoin:miter;stroke-opacity:.2786885;font-family:Bitstream Vera Sans Mono" id="path3221" d="M 25.694705,12.191731 L 25.694705,11.067756 L 29.001001,12.562073 L 29.001001,13.245026 L 25.694705,14.749146 L 25.694705,13.628511 L 28.257509,12.946316 L 25.694705,12.191731 z M 32.646939,15.881295 L 32.646939,16.607773 L 28.634633,16.607773 L 28.634633,15.881295 L 32.646939,15.881295"/><path style="font-size:18.58501053px;font-style:normal;font-variant:normal;font-weight:700;font-stretch:normal;text-align:start;line-height:125%;writing-mode:lr-tb;text-anchor:start;fill:#fff;fill-opacity:1;stroke:red;stroke-width:.36798642pt;stroke-linecap:butt;stroke-linejoin:miter;stroke-opacity:.2786885;font-family:Bitstream Vera Sans Mono" id="path3223" d="M 8.5171086,26.538666 L 8.5171086,25.414691 L 11.823408,26.909008 L 11.823408,27.591961 L 8.5171086,29.096081 L 8.5171086,27.975446 L 11.079916,27.293251 L 8.5171086,26.538666 z M 15.469346,30.22823 L 15.469346,30.954708 L 11.457041,30.954708 L 11.457041,30.22823 L 15.469346,30.22823"/><path style="font-size:18.58501053px;font-style:normal;font-variant:normal;font-weight:700;font-stretch:normal;text-align:start;line-height:125%;writing-mode:lr-tb;text-anchor:start;fill:#fff;fill-opacity:1;stroke:red;stroke-width:.36798642pt;stroke-linecap:butt;stroke-linejoin:miter;stroke-opacity:.2786885;font-family:Bitstream Vera Sans Mono" id="path3226" d="M 25.694704,26.606311 L 25.694704,25.482336 L 29.001002,26.976653 L 29.001002,27.659606 L 25.694704,29.163726 L 25.694704,28.043091 L 28.257511,27.360896 L 25.694704,26.606311 z M 32.64694,30.295875 L 32.64694,31.022353 L 28.634636,31.022353 L 28.634636,30.295875 L 32.64694,30.295875"/><g id="g4242" transform="translate(61.125003,-52.250002)" style="opacity:.15217391;filter:url(#filter4266)"><path style="fill:#000;fill-opacity:1;stroke:#000;stroke-width:1;stroke-linecap:round;stroke-linejoin:round;stroke-miterlimit:4;stroke-opacity:1;stroke-dasharray:none" id="path4130" d="m -51.120299,85.915815 c 2.726587,0.600684 19.777958,-14.34003 21.360411,-21.109293 -0.667547,-6.144264 2.83383,-11.344527 11.855637,-8.778421 -1.5786,1.000056 -4.825703,2.636755 -6.727272,3.926479 -0.398967,2.615549 0.946875,5.807027 3.853343,6.693718 2.265652,-1.278824 5.011914,-2.722117 6.696725,-3.615421 -1.011034,4.255319 -4.625201,8.951599 -9.568039,7.66769 -4.390411,0.992091 -20.850266,16.605262 -21.48373,20.813235"/><path id="path4132" d="m -51.874999,85.875003 c -3.762981,0 -6.8125,3.049519 -6.8125,6.8125 0,3.762981 3.049519,6.8125 6.8125,6.8125 3.762981,0 6.8125,-3.049519 6.8125,-6.8125 0,-3.762981 -3.049519,-6.8125 -6.8125,-6.8125 z m -0.9375,1.84375 1.28125,0.46875 1.34375,-0.25 0.875,1 1.28125,0.46875 0.25,1.3125 0.875,1.03125 -0.46875,1.28125 0.25,1.34375 -1,0.875 -0.46875,1.28125 -1.3125,0.25 -1.03125,0.875 -1.28125,-0.46875 -1.34375,0.25 -0.875,-1 -1.28125,-0.46875 -0.25,-1.3125 -0.875,-1.03125 0.46875,-1.28125 -0.25,-1.34375 1,-0.875 0.46875,-1.28125 1.3125,-0.25 1.03125,-0.875 z" style="fill:#000;fill-opacity:1;stroke:#000;stroke-width:1;stroke-linecap:round;stroke-linejoin:round;stroke-miterlimit:4;stroke-opacity:1;stroke-dasharray:none"/></g><g id="g4112" transform="translate(73.402729,0.45450485)"><path id="path5380" d="m -65.3703,30.665812 c 2.726587,0.600684 19.777958,-14.34003 21.360411,-21.109293 -0.667547,-6.1442635 2.83383,-11.3445266 11.855637,-8.77842101 -1.5786,1.00005581 -4.825703,2.63675531 -6.727272,3.92647901 -0.398967,2.615549 0.946875,5.807027 3.853343,6.693718 2.265652,-1.278824 5.011914,-2.722117 6.696725,-3.615421 -1.011034,4.255319 -4.625201,8.951599 -9.568039,7.66769 -4.390411,0.992091 -20.850266,16.605262 -21.48373,20.813235" style="fill:#c4c6c4;fill-opacity:1;stroke:#696969;stroke-width:1;stroke-linecap:round;stroke-linejoin:round;stroke-miterlimit:4;stroke-opacity:1;stroke-dasharray:none"/><path id="path5890" d="m -66.125,30.625 c -3.762981,0 -6.8125,3.049519 -6.8125,6.8125 0,3.762981 3.049519,6.8125 6.8125,6.8125 3.762981,0 6.8125,-3.049519 6.8125,-6.8125 0,-3.762981 -3.049519,-6.8125 -6.8125,-6.8125 z m -0.9375,1.84375 1.28125,0.46875 1.34375,-0.25 0.875,1 1.28125,0.46875 0.25,1.3125 0.875,1.03125 -0.46875,1.28125 0.25,1.34375 -1,0.875 -0.46875,1.28125 -1.3125,0.25 -1.03125,0.875 -1.28125,-0.46875 -1.34375,0.25 -0.875,-1 -1.28125,-0.46875 -0.25,-1.3125 -0.875,-1.03125 0.46875,-1.28125 -0.25,-1.34375 1,-0.875 0.46875,-1.28125 1.3125,-0.25 1.03125,-0.875 z" style="fill:#c4c6c4;fill-opacity:1;stroke:#696969;stroke-width:1;stroke-linecap:round;stroke-linejoin:round;stroke-miterlimit:4;stroke-opacity:1;stroke-dasharray:none"/><g id="g5959" transform="translate(7.25,5.5625)"><path style="fill:none;stroke:url(#linearGradient5964);stroke-width:.5;stroke-linecap:round;stroke-linejoin:round;stroke-miterlimit:4;stroke-opacity:1" id="path5941" d="m -73.375,25.53125 c -3.498094,0 -6.3125,2.814406 -6.3125,6.3125 0,3.498094 2.814406,6.3125 6.3125,6.3125 3.498094,0 6.3125,-2.814406 6.3125,-6.3125 0,-3.498094 -2.814406,-6.3125 -6.3125,-6.3125 z"/><path id="path5962" d="m -74.375,26.375 a 0.49033937,0.49033937 0 0 1 0.21875,0.03125 l 1.1875,0.4375 1.1875,-0.21875 a 0.49033937,0.49033937 0 0 1 0.46875,0.15625 l 0.78125,0.875 1.15625,0.4375 a 0.49033937,0.49033937 0 0 1 0.3125,0.375 l 0.21875,1.1875 0.8125,0.9375 a 0.49033937,0.49033937 0 0 1 0.09375,0.46875 l -0.4375,1.1875 0.21875,1.1875 a 0.49033937,0.49033937 0 0 1 -0.15625,0.46875 l -0.875,0.78125 -0.4375,1.15625 A 0.49033937,0.49033937 0 0 1 -70,36.15625 l -1.1875,0.21875 -0.9375,0.8125 a 0.49033937,0.49033937 0 0 1 -0.46875,0.09375 l -1.1875,-0.4375 -1.1875,0.21875 a 0.49033937,0.49033937 0 0 1 -0.46875,-0.15625 l -0.78125,-0.875 -1.15625,-0.4375 a 0.49033937,0.49033937 0 0 1 -0.3125,-0.375 l -0.21875,-1.1875 -0.8125,-0.9375 a 0.49033937,0.49033937 0 0 1 -0.0937,-0.46875 l 0.4375,-1.1875 -0.21875,-1.1875 a 0.49033937,0.49033937 0 0 1 0.15625,-0.46875 l 0.875,-0.78125 0.4375,-1.15625 A 0.49033937,0.49033937 0 0 1 -76.75,27.53125 L -75.5625,27.3125 -74.625,26.5 a 0.49033937,0.49033937 0 0 1 0.25,-0.125 z" style="fill:none;stroke:url(#linearGradient5966);stroke-width:.5;stroke-linecap:round;stroke-linejoin:round;stroke-miterlimit:4;stroke-opacity:1"/></g><path id="path3120" d="m -34.736622,1.1983678 c -7.111471,-1.35106311 -10.915311,6.0078061 -6.081792,11.1962912" style="fill:none;stroke:url(#linearGradient3896);stroke-width:1px;stroke-linecap:round;stroke-linejoin:miter;stroke-opacity:1;filter:url(#filter3924)"/><path id="path3898" d="m -29.843751,9.3437483 c -1.9375,4.6874997 -6.093751,6.6562507 -9.625001,4.4374997" style="opacity:.78260869;fill:none;stroke:url(#linearGradient3906);stroke-width:1px;stroke-linecap:round;stroke-linejoin:miter;stroke-opacity:1;filter:url(#filter3916)"/><path id="path3928" d="m -29.565904,9.1533195 -4.817165,2.6958445" style="fill:none;stroke:url(#linearGradient3936);stroke-width:.40000001;stroke-linecap:round;stroke-linejoin:miter;stroke-miterlimit:4;stroke-opacity:1;stroke-dasharray:none"/><path id="path3928-9" d="m -39.173661,4.019587 5.206694,-2.9138388" transform="matrix(1.00943,-0.01244185,0.01244185,1.00943,0.28535183,-0.46196882)" style="opacity:.79130435;fill:none;stroke:url(#linearGradient3953);stroke-width:.43234515;stroke-linecap:round;stroke-linejoin:miter;stroke-miterlimit:4;stroke-opacity:1;stroke-dasharray:none;filter:url(#filter3976)"/><path id="path3928-9-5" d="m -40.211727,5.014185 c 0.773914,-0.8626002 1.628322,-1.7101207 2.753022,-1.9776393" transform="matrix(0.58077757,-0.81406229,0.81406229,0.58077757,-20.143481,-27.991837)" style="opacity:.79130435;fill:none;stroke:url(#radialGradient4020);stroke-width:.43234515;stroke-linecap:round;stroke-linejoin:miter;stroke-miterlimit:4;stroke-opacity:1;stroke-dasharray:none;filter:url(#filter3976-2)"/><path id="path4032" d="m -63.455254,30.637051 c 1.078125,0.34375 3.149351,1.664745 4.125914,4.070996 l 1.169805,-1.840761 c -0.140625,-1.226563 -2.572376,-3.358527 -3.314564,-3.42884 z" style="fill:url(#radialGradient4040);fill-opacity:1;stroke:none"/><rect id="rect4044" width="23.535" height="1.42" x="-64.095" y="-20.567" rx=".68" ry=".71" transform="matrix(0.7110114,-0.70318048,0.68227579,0.7310949,0,0)" style="opacity:.26086958;fill:#000;fill-opacity:1;stroke:none"/><path id="path4046" d="m -61.093753,29.531249 c 5.65625,-3.6875 16.281251,-14.0625 17.718751,-19.281251" style="opacity:.73478262;fill:none;stroke:#fff;stroke-width:.69999999;stroke-linecap:round;stroke-linejoin:miter;stroke-miterlimit:4;stroke-opacity:1;stroke-dasharray:none;filter:url(#filter4108)"/><path id="path4046-2" d="m -55.488291,24.527163 c 5.558058,-2.839308 15.925094,-12.189878 20.46691,-19.080425" transform="matrix(-1,0,0,-1,-94.266177,39.343067)" style="opacity:.44782607;fill:none;stroke:#000;stroke-width:.69999999;stroke-linecap:round;stroke-linejoin:miter;stroke-miterlimit:4;stroke-opacity:1;stroke-dasharray:none;filter:url(#filter4100)"/></g></g></svg>