<svg xmlns="http://www.w3.org/2000/svg" xmlns:svg="http://www.w3.org/2000/svg" id="svg2" width="16" height="16" version="1.1"><metadata id="metadata7"/><g id="layer1" transform="translate(0,-1036.3622)"><rect style="fill:#fff;fill-opacity:1;stroke:none" id="rect3035-3" width="6" height="9" x="5" y="1043.362" ry="1.5"/><rect style="fill:#000;fill-opacity:1;stroke:none" id="rect3035" width="4" height="6" x="6" y="1045.362" ry="1"/><path style="fill:#fff;fill-opacity:1;stroke:none" id="path3033-3-5" d="M 13,7 C 13,9.7614237 10.761424,12 8,12 5.2385763,12 3,9.7614237 3,7 3,4.2385763 5.2385763,2 8,2 c 2.761424,0 5,2.2385763 5,5 z" transform="matrix(1.2,0,0,1.2,-1.6,1033.9622)"/><path style="fill:#000;fill-opacity:1;stroke:none" id="path3033-3" d="M 13,7 C 13,9.7614237 10.761424,12 8,12 5.2385763,12 3,9.7614237 3,7 3,4.2385763 5.2385763,2 8,2 c 2.761424,0 5,2.2385763 5,5 z" transform="translate(0,1035.3622)"/><path style="fill:#fff;fill-opacity:1;stroke:none" id="path3033" d="M 13,7 C 13,9.7614237 10.761424,12 8,12 5.2385763,12 3,9.7614237 3,7 3,4.2385763 5.2385763,2 8,2 c 2.761424,0 5,2.2385763 5,5 z" transform="matrix(0.8,0,0,0.8,1.6,1036.7622)"/><rect style="fill:#fff;fill-opacity:1;stroke:none" id="rect3866" width="4" height="5" x="6" y="1043.362" ry="0"/><path style="fill:#000;fill-opacity:1;stroke:none" id="rect3868" d="m 6.0000174,1045.827 c 0.2669189,0.1641 0.7682314,0.4219 0.9999826,0.4571 -1.16e-5,0.6667 2.32e-5,1.4115 -1.74e-5,2.0781 -0.3333252,0 -0.6666689,0 -0.9999826,0 5.8e-6,-0.6667 1.16e-5,-1.8685 1.74e-5,-2.5352 z"/><path style="fill:#000;fill-opacity:1;stroke:none" id="rect3868-7" d="m 9.9999826,1045.827 c -0.2669189,0.1641 -0.7682314,0.4219 -0.9999826,0.4571 1.16e-5,0.6667 -2.32e-5,1.4115 1.74e-5,2.0781 0.3333252,0 0.6666689,0 0.9999826,0 -5.8e-6,-0.6667 -1.16e-5,-1.8685 -1.74e-5,-2.5352 z"/><rect style="fill:#fff;fill-opacity:1;stroke:none" id="rect3913" width="2.085" height=".786" x="7.298" y="1051.815" ry="0" transform="matrix(0.95922998,-0.2826267,0,1,0,0)"/><path style="fill:none;stroke:#000;stroke-width:1px;stroke-linecap:round;stroke-linejoin:miter;stroke-opacity:1" id="path3933" d="m 8,11 c 0,0 0.3093592,-2.3812816 -1.248699,-3.9393398 -2,-2 0.6906407,-2.5026019 0.6906407,-1.5026019 0,1 1.0197811,-0.6788398 1.5580583,-0.5580583 0.4599673,0.1032099 1,1 1,1" transform="translate(0,1036.3622)"/></g></svg>